<?xml version="1.0" encoding="UTF-8"?>
<!DOCTYPE svg PUBLIC "-//W3C//DTD SVG 1.1//EN" "http://www.w3.org/Graphics/SVG/1.1/DTD/svg11.dtd">
<svg xmlns="http://www.w3.org/2000/svg" version="1.1" width="512px" height="512px" style="shape-rendering:geometricPrecision; text-rendering:geometricPrecision; image-rendering:optimizeQuality; fill-rule:evenodd; clip-rule:evenodd" xmlns:xlink="http://www.w3.org/1999/xlink">
<g><path style="opacity:0.988" fill="#010000" d="M 214.5,23.5 C 241.835,23.3334 269.169,23.5 296.5,24C 363.655,34.2997 412.155,69.7997 442,130.5C 453.669,157.354 457.169,185.187 452.5,214C 477.223,216.295 488.723,229.795 487,254.5C 484,266.166 476.833,273.999 465.5,278C 472.069,289.25 473.236,301.084 469,313.5C 467.561,316.603 465.727,319.436 463.5,322C 471.035,330.446 473.535,340.279 471,351.5C 470.261,355.062 468.761,358.228 466.5,361C 484.151,369.474 490.651,383.307 486,402.5C 479.643,416.433 468.81,424.1 453.5,425.5C 459.086,451.158 450.42,470.325 427.5,483C 423.637,484.732 419.637,486.066 415.5,487C 308.833,487.667 202.167,487.667 95.5,487C 67.3979,478.634 54.2312,459.801 56,430.5C 56.346,428.782 56.846,427.115 57.5,425.5C 31.3106,421.489 20.4773,406.489 25,380.5C 28.8589,371.308 35.3589,364.808 44.5,361C 39.7605,353.178 38.2605,344.678 40,335.5C 41.0769,330.177 43.5769,325.677 47.5,322C 39.9643,312.786 37.4643,302.286 40,290.5C 41.108,286.509 42.608,282.675 44.5,279C 23.0529,267.415 17.8862,250.582 29,228.5C 36.4666,218.95 46.2999,214.284 58.5,214.5C 52.6632,176.851 59.8298,141.851 80,109.5C 111.879,60.7976 156.712,32.1309 214.5,23.5 Z"/></g>
<g><path style="opacity:1" fill="#f68b1d" d="M 255.5,39.5 C 255.5,55.5 255.5,71.5 255.5,87.5C 248.056,89.0543 245.889,93.3876 249,100.5C 250.734,102.451 252.901,103.451 255.5,103.5C 255.5,140.833 255.5,178.167 255.5,215.5C 197.166,215.667 138.832,215.5 80.5,215C 72.7095,211.082 69.7095,204.748 71.5,196C 75.983,135.337 104.316,89.6703 156.5,59C 187.551,42.8242 220.551,36.3242 255.5,39.5 Z"/></g>
<g><path style="opacity:1" fill="#f37b1f" d="M 255.5,39.5 C 324.375,34.691 377.875,60.691 416,117.5C 432.589,144.857 440.256,174.524 439,206.5C 437.5,210.667 434.667,213.5 430.5,215C 372.168,215.5 313.834,215.667 255.5,215.5C 255.5,178.167 255.5,140.833 255.5,103.5C 260.719,103.113 263.386,100.28 263.5,95C 262.932,90.2654 260.265,87.7654 255.5,87.5C 255.5,71.5 255.5,55.5 255.5,39.5 Z"/></g>
<g><path style="opacity:1" fill="#0e0601" d="M 204.5,87.5 C 215.167,88.0025 217.833,92.8359 212.5,102C 203.42,105.215 199.253,102.048 200,92.5C 201.025,90.313 202.525,88.6464 204.5,87.5 Z"/></g>
<g><path style="opacity:1" fill="#0d0501" d="M 255.5,87.5 C 260.265,87.7654 262.932,90.2654 263.5,95C 263.386,100.28 260.719,103.113 255.5,103.5C 252.901,103.451 250.734,102.451 249,100.5C 245.889,93.3876 248.056,89.0543 255.5,87.5 Z"/></g>
<g><path style="opacity:1" fill="#0d0401" d="M 300.5,87.5 C 311.167,88.0025 313.833,92.8359 308.5,102C 299.42,105.215 295.253,102.048 296,92.5C 297.025,90.313 298.525,88.6464 300.5,87.5 Z"/></g>
<g><path style="opacity:1" fill="#fcd736" d="M 255.5,231.5 C 255.5,242.167 255.5,252.833 255.5,263.5C 187.166,263.667 118.833,263.5 50.5,263C 38.9621,257.183 36.4621,248.683 43,237.5C 45.5641,235.273 48.3974,233.439 51.5,232C 119.499,231.5 187.499,231.333 255.5,231.5 Z"/></g>
<g><path style="opacity:1" fill="#f8be2b" d="M 255.5,231.5 C 323.834,231.333 392.167,231.5 460.5,232C 471.686,237.896 474.186,246.396 468,257.5C 465.592,259.956 462.759,261.789 459.5,263C 426.833,263.333 394.167,263.667 361.5,264C 353,267.167 347.167,273 344,281.5C 343.667,295.167 343.333,308.833 343,322.5C 338.049,329.154 333.049,329.154 328,322.5C 327.667,308.833 327.333,295.167 327,281.5C 323.538,271.704 316.705,265.871 306.5,264C 289.503,263.5 272.503,263.333 255.5,263.5C 255.5,252.833 255.5,242.167 255.5,231.5 Z"/></g>
<g><path style="opacity:1" fill="#6c4c41" d="M 255.5,279.5 C 255.5,295.5 255.5,311.5 255.5,327.5C 251.681,327.395 248.014,326.562 244.5,325C 224.737,307.43 204.737,307.096 184.5,324C 179.182,327.035 173.515,328.035 167.5,327C 159.379,323.44 151.712,319.107 144.5,314C 135.935,311.124 127.268,310.79 118.5,313C 111.567,317.048 104.734,321.214 98,325.5C 90.5699,328.526 83.4032,328.026 76.5,324C 69.8708,319.428 63.7041,314.262 58,308.5C 52.8074,295.382 56.6408,285.882 69.5,280C 131.499,279.5 193.499,279.333 255.5,279.5 Z"/></g>
<g><path style="opacity:1" fill="#5d4036" d="M 255.5,279.5 C 273.236,279.041 290.902,279.541 308.5,281C 309.701,281.903 310.535,283.069 311,284.5C 311.667,294.5 311.667,304.5 311,314.5C 299.16,309.978 287.66,310.812 276.5,317C 270.826,323.17 263.826,326.67 255.5,327.5C 255.5,311.5 255.5,295.5 255.5,279.5 Z"/></g>
<g><path style="opacity:1" fill="#5d4036" d="M 364.5,279.5 C 390.885,279.036 417.218,279.536 443.5,281C 454.038,286.578 457.538,295.078 454,306.5C 448.619,313.603 442.119,319.436 434.5,324C 427.765,327.64 420.765,328.307 413.5,326C 408.644,323.74 404.311,320.74 400.5,317C 386.855,309.511 373.355,309.677 360,317.5C 359.333,306.5 359.333,295.5 360,284.5C 361.025,282.313 362.525,280.646 364.5,279.5 Z"/></g>
<g><path style="opacity:1" fill="#e33934" d="M 255.5,343.5 C 255.5,348.833 255.5,354.167 255.5,359.5C 221.498,359.333 187.498,359.5 153.5,360C 145,363.167 139.167,369 136,377.5C 135.667,396.167 135.333,414.833 135,433.5C 132.326,439.636 128.16,440.97 122.5,437.5C 121.416,436.335 120.583,435.002 120,433.5C 119.667,414.833 119.333,396.167 119,377.5C 116.256,369.755 111.089,364.255 103.5,361C 90.4769,360.043 77.4769,359.043 64.5,358C 56.4634,352.761 53.9634,345.594 57,336.5C 57.941,334.939 59.1076,333.605 60.5,332.5C 80.7729,347.674 100.44,346.841 119.5,330C 125.675,327.083 132.008,326.75 138.5,329C 143.506,331.501 148.173,334.501 152.5,338C 164.976,344.949 177.643,345.282 190.5,339C 196.956,332.703 204.623,328.869 213.5,327.5C 217.327,327.608 220.993,328.442 224.5,330C 230.566,334.395 236.9,338.395 243.5,342C 247.395,343.266 251.395,343.766 255.5,343.5 Z"/></g>
<g><path style="opacity:1" fill="#d12d2d" d="M 255.5,359.5 C 255.5,354.167 255.5,348.833 255.5,343.5C 260.371,343.808 265.037,342.975 269.5,341C 276.002,337.25 282.335,333.25 288.5,329C 294.167,327 299.833,327 305.5,329C 310.356,331.26 314.689,334.26 318.5,338C 331.765,345.209 345.098,345.209 358.5,338C 362.833,335 367.167,332 371.5,329C 377.167,327 382.833,327 388.5,329C 394.835,333.503 401.502,337.503 408.5,341C 423.958,345.47 437.958,342.636 450.5,332.5C 456.581,338.951 457.081,345.951 452,353.5C 449.559,355.969 446.726,357.802 443.5,359C 380.834,359.5 318.168,359.667 255.5,359.5 Z"/></g>
<g><path style="opacity:1" fill="#419f46" d="M 50.5,375.5 C 67.2616,375.029 83.9282,375.529 100.5,377C 101.701,377.903 102.535,379.069 103,380.5C 103.5,389.494 103.666,398.494 103.5,407.5C 85.8302,407.667 68.1635,407.5 50.5,407C 39.5687,401.638 36.7354,393.472 42,382.5C 44.4412,379.546 47.2745,377.213 50.5,375.5 Z"/></g>
<g><path style="opacity:1" fill="#419e46" d="M 156.5,375.5 C 161.844,375.334 167.177,375.501 172.5,376C 180.79,386.626 189.457,396.959 198.5,407C 182.837,407.5 167.17,407.667 151.5,407.5C 151.334,398.494 151.5,389.494 152,380.5C 153.025,378.313 154.525,376.646 156.5,375.5 Z"/></g>
<g><path style="opacity:1" fill="#f8d436" d="M 215.5,375.5 C 215.826,384.349 215.493,393.016 214.5,401.5C 207.032,393.192 199.698,384.692 192.5,376C 200.159,375.5 207.826,375.334 215.5,375.5 Z"/></g>
<g><path style="opacity:1" fill="#f4bb2b" d="M 215.5,375.5 C 223.174,375.334 230.841,375.5 238.5,376C 230.991,385.006 223.324,393.84 215.5,402.5C 214.893,402.376 214.56,402.043 214.5,401.5C 215.493,393.016 215.826,384.349 215.5,375.5 Z"/></g>
<g><path style="opacity:1" fill="#368d42" d="M 255.5,407.5 C 255.826,398.651 255.493,389.984 254.5,381.5C 256.002,379.825 257.335,377.992 258.5,376C 283.167,375.333 307.833,375.333 332.5,376C 340.79,386.626 349.457,396.959 358.5,407C 324.168,407.5 289.835,407.667 255.5,407.5 Z"/></g>
<g><path style="opacity:1" fill="#f8d436" d="M 375.5,375.5 C 375.826,384.349 375.493,393.016 374.5,401.5C 367.032,393.192 359.698,384.692 352.5,376C 360.159,375.5 367.826,375.334 375.5,375.5 Z"/></g>
<g><path style="opacity:1" fill="#f4bb2b" d="M 375.5,375.5 C 383.174,375.334 390.841,375.5 398.5,376C 390.991,385.006 383.324,393.84 375.5,402.5C 374.893,402.376 374.56,402.043 374.5,401.5C 375.493,393.016 375.826,384.349 375.5,375.5 Z"/></g>
<g><path style="opacity:1" fill="#368c42" d="M 418.5,375.5 C 432.504,375.333 446.504,375.5 460.5,376C 471.431,381.362 474.265,389.528 469,400.5C 466.736,403.433 463.902,405.6 460.5,407C 437.833,407.667 415.167,407.667 392.5,407C 401.756,396.918 410.423,386.418 418.5,375.5 Z"/></g>
<g><path style="opacity:1" fill="#409d45" d="M 254.5,381.5 C 255.493,389.984 255.826,398.651 255.5,407.5C 247.826,407.666 240.159,407.5 232.5,407C 239.698,398.308 247.032,389.808 254.5,381.5 Z"/></g>
<g><path style="opacity:1" fill="#f68b1d" d="M 255.5,423.5 C 255.5,439.5 255.5,455.5 255.5,471.5C 203.166,471.667 150.832,471.5 98.5,471C 77.6984,463.878 69.5317,449.711 74,428.5C 75.7309,426.383 77.8976,424.883 80.5,424C 88.1594,423.5 95.8261,423.334 103.5,423.5C 101.454,441.121 108.954,451.788 126,455.5C 144.985,453.336 153.485,442.669 151.5,423.5C 186.167,423.5 220.833,423.5 255.5,423.5 Z"/></g>
<g><path style="opacity:1" fill="#f37b1f" d="M 255.5,423.5 C 313.834,423.333 372.168,423.5 430.5,424C 436.333,426.835 439.333,431.502 439.5,438C 437.758,455.411 428.425,466.411 411.5,471C 359.501,471.5 307.501,471.667 255.5,471.5C 255.5,455.5 255.5,439.5 255.5,423.5 Z"/></g>
</svg>
